<svg xmlns="http://www.w3.org/2000/svg" viewBox="162 328 762 332"><path fill="#ae1f5d" d="M637.4 401.4c2.82 2.82 3.54 5.1 3.98 9.04-.45 4.2-1.33 5.68-4.38 8.56-4.65 3-9.81 2.06-15 1-6.8-1.98-10.66-6.55-15.12-11.86-2-2.27-2.9-3.02-5.87-3.38-3.76-.12-6.35-.09-9.76 1.62-7.16 8.35-9.37 19.26-12.25 29.62h17c1.17 3.5.85 5.44 0 9-3.31 1.65-7 1.1-10.62 1.06l-2.43-.01L577 446l-.32 1.86a494 494 0 0 1-5.16 24.75l-5.34 23.43c-6.84 30.19-6.84 30.19-10.48 43.6l-.68 2.51C550 560.12 542.47 577.9 530 592h-2l-.66 1.67c-1.8 3.14-4.16 5.16-6.84 7.58l-1.51 1.4C515.26 606 515.26 606 513 606v2c-23.7 14.17-46.93 16.37-74 14v-2l-1.62-.2c-12.86-2-24.85-8.38-35.38-15.8l-2.13-1.5c-7.86-5.69-14.75-11.84-20.46-19.71-1.3-1.91-1.3-1.91-3.41-2.79a155 155 0 0 1-3.87-7.44l-1.09-2.2c-3.6-7.4-6.68-14.2-8.04-22.36l27-1 4 7.88c3.67 7.02 7.62 13.25 13 19.12l1.9 2.13c13.02 13.93 32.21 21.34 51.04 22.18 15-.18 26.82-5.75 38.06-15.31h2l.81-1.75a28 28 0 0 1 6.02-7.92c2.72-2.91 4.62-6.12 6.55-9.58l1.18-2.13c7.27-13.38 13.22-29.4 14.44-44.62l-2.05 1.4c-12.11 7.97-23.41 12.45-38.05 10.1-9.37-2.1-15.77-6.26-22.9-12.5l-.75 1.94C464 520 464 520 462.18 520.47L460 521a70 70 0 0 0-4.06 2.5c-6.83 4.5-14.03 4.09-21.94 3.5-6.02-1.59-9.5-5-13-10-9.33-16.33-1.67-36.93 2.75-53.75 1.4-5.38 1.93-10.71 2.25-16.25-6.19-.5-8.95.76-14 4q-2 1.02-4 2v2h-2l-.88 1.78q-1 2-2.09 3.94c-3.16 5.8-4.57 11.73-5.97 18.15l-.76 3.4q-2.75 12.56-5.24 25.17l-.67 3.37-.6 3.12-.54 2.76c-.43 2.47-.43 2.47.75 5.31h-2v3a28 28 0 0 1-8.1 1.1l-2.3-.01-2.35-.03-2.4-.01L367 526l-1 2v-2l-5-1 1-10-3.37 2.69C346.96 526.4 335.47 529.22 321 528c-8.35-1.9-15.86-5.5-20.75-12.69-3.45-6-5.48-12.37-5.25-19.31l-2-1h2l-.18-2.5c-.71-18.4 6.84-35.92 19.18-49.5 8.9-7.36 18.6-10.69 30.1-10.35 5.86.7 10.78 2.74 14.77 7.16 5.35 8.03 6.14 14.54 5.13 24.19a39 39 0 0 1-4 9l-1.62 3.06L357 478h-2l-.73 1.8c-3.01 5.21-9.26 7.6-14.8 9.25A70 70 0 0 1 322 491c1.34 11.18 1.34 11.18 8.06 19.81 4.5 2.76 9.02 2.8 14.12 1.73 7.9-2.32 15.6-7.3 19.82-14.54 4.13-9.93 5.99-20.58 8.13-31.06q.52-2.53 1.05-5.05A761 761 0 0 0 378 437c5.33-2.2 10.09-2.3 15.75-2.25l2.61-.02h2.5l2.26.01C403 435 403 435 405 437c-.37 3.63-.37 3.63-1 7l1.98-1.4c9.32-6.26 19.5-11.41 31.02-9.6 5.42 1.39 8.94 3.3 12 8.06 6.73 12.18 2.27 26.99-.94 39.63-3.97 14.46-3.97 14.46-5.06 29.31l2 3c5.65.9 8.84-.7 13.4-3.71 1.74-1.22 1.74-1.22 2.6-3.29q.05-2.45-.04-4.88c-.54-21.8 2.46-40.57 18.04-57.12 7.52-7.16 16.88-11.26 27.25-11.5 8.42.38 13.2 1.55 19.13 7.69 5 6.1 5.85 10.79 5.62 18.56-.95 8.63-4.46 16.32-10.87 22.25A47.3 47.3 0 0 1 488 491c1.7 11.93 1.7 11.93 9 21 7.4 2.47 14.42 1.7 21.38-1.69 7.8-4.35 13.86-8.91 16.75-17.77l.87-3.78.5-2.08 1.5-6.56 2.5-10.67c1.73-7.51 3.6-14.98 5.5-22.45l-2.53-.17c-5.97-.42-5.97-.42-8.47-.83-1.6-3.22-.07-5.72 1-9l1-1 2.48.18c3.57.15 6.13 0 9.52-1.18a40 40 0 0 0 4.35-8.21c6.14-14.51 19.63-23.42 33.61-29.57 15.92-6.4 36.47-6.56 50.45 4.18M335 449c-6.33 7.96-10.62 18.84-11 29l1 2c7.07-.58 12.26-2.9 17.19-8.06 5.56-6.96 7.64-15.18 6.81-23.94l-2-2-1-2c-5.03-.74-7.73 1.46-11 5m170-4v2l-3 1c-7.2 8.35-13 21.92-13 33 8.07-1.28 14.5-3.76 19.83-10.22 4-5.83 6.46-10.72 6.42-17.9l.02-3.14c-.07-2.96-.07-2.96-2.27-5.74-3.08-.26-5.21-.4-8 1m-182 33 1 2Z"/><path fill="#ae205d" d="M724 341c2 2 2 2 2.44 5.56 1.46 6.49 7.5 9.7 12.56 13.44a57.2 57.2 0 0 1 21.64 35.64c1.76 16.4-2.02 30.06-11.76 43.24C747 441 747 441 745 442.68c-2.55 2.96-3.13 5.78-3.82 9.51l-.45 2.19-.94 4.7q-.74 3.78-1.5 7.53l-2.16 10.75q-2.58 12.9-5.24 25.79l-1.66 8.17c-3.95 19.44-8.95 39.01-25.71 51.54-13.36 8.4-30.4 10.58-45.82 7.35-5.85-1.44-11.48-3.14-16.7-6.21l-1-3-3-1c-2.2-3.91-3-6.12-3-10.62 1.27-4.3 2.31-5.8 6-8.38 6.3-2.2 11.84-2.58 18.07-.04 4.88 2.63 7.7 6.94 10.62 11.49 2.12 2.5 4.26 3.42 7.5 3.82 6.16 0 6.16 0 11.81-2.27 1.04-1.8 1.04-1.8 2-4l1.15-2.42c2.7-6.08 4.65-12.12 6.16-18.58l.52-2.21A43 43 0 0 0 699 517l-1.27 1.39a17 17 0 0 1-5.38 3.4l-2.1.91-2.19.92-2.17.95c-6.58 2.83-6.58 2.83-9.89 3.43l-2-1q-2.81-.4-5.62-.75c-7.1-1.15-11.76-3.5-16.7-8.69A66 66 0 0 1 647 509l-1.14 1.29c-8.2 8.72-19.19 15.78-31.34 16.95-7.59.2-13.3-.91-19.34-5.68-4.78-4.8-5.85-9.96-6.18-16.56.8-14.19 3.94-27.93 7.06-41.75l3.35-15.02c1-4.4 1.91-8.77 2.59-13.23q6.09-.09 12.19-.12l3.48-.06q1.67 0 3.37-.02l3.1-.03c2.99.24 5.15.97 7.86 2.23l-7.24 35.44q-1.42 7-2.94 14l-.56 2.59-1.06 4.76A63 63 0 0 0 619 512c8.84-.28 13.97-3.12 20.3-9.22 3.65-3.89 5.97-6.42 6.7-11.78 3.67-20.8 10-38.88 27.64-51.96q3.14-2.1 6.36-4.04l-1.87-1.87c-8.35-8.35-13.94-19.07-14.44-30.94.38-14.56 7.4-27.42 17.47-37.57 5.03-4.64 10.39-7.56 16.63-10.28l4.02-1.78 1.99-.87c5.23-2.44 7.4-4.76 10.2-9.69 3.37-2.61 5.98-2.05 10-1m-39.73 31.53c-8.22 8.97-11.13 18.5-11.27 30.47a38.4 38.4 0 0 0 11.83 24.4c11.92 8.8 23.87 9.7 38.17 8.6a31 31 0 0 0 10-4l3.13-1.69c9.24-7.43 13.93-15.4 15.64-27.13.81-11.24-3.08-21.62-10.3-30.17-5.26-5.6-11.93-12.69-19.66-14.53L720 358l-1-2c-12.01 0-26.4 8.68-34.73 16.53M693 447v2h-2c-11.66 15.28-18.96 34.59-17 54 .83 3.52 1.9 6.13 4.81 8.44 4.73 1.21 7.9.99 12.13-1.44 9.58-6.62 12.54-13.8 15.06-25l.77-3.28q1.19-5.35 2.23-10.72l.52-2.63 1.67-8.62.54-2.82.5-2.63.45-2.37c.37-1.93.37-1.93.32-3.93q-3.87-.84-7.75-1.62l-2.21-.49c-5.31-1.08-5.31-1.08-10.04 1.11"/><path fill="#ae1f5d" d="m277 398 1 3h2a31.8 31.8 0 0 1 7.3 21.61c-1.12 8.83-5.84 15.5-12.3 21.39a48 48 0 0 1-7 4l1.87.96c9.03 4.97 16.1 11.14 19.63 21.04 3.1 11.22 3.2 20.99-1.8 31.8a70 70 0 0 1-4.7 7.2l-1.38 1.9c-3.69 4.27-8.3 6.82-13.25 9.41l-1.9 1.03c-13.62 6.72-30.04 4.9-44.78 4.78l-6.9-.02q-8.4-.03-16.79-.1c-.32-7.13.9-13.65 2.3-20.62q.38-1.84.74-3.74l1.58-7.95 3.7-18.8.83-4.24q4.19-21.49 8.1-43.02l.59-3.23L219 407c-5.38-.17-7.14 1.19-11 4.82-5.85 6.39-9.41 13.5-10 22.18.12 2.43.38 4.81.7 7.23.95 8.64 1.9 17.57-3.7 24.77a22 22 0 0 1-6 5c-3.98-.08-5.67-.78-9-3-6.57-9.1-7.22-18.24-6-29a44 44 0 0 1 3-10l.96-2.4c5.1-11.45 13.94-20.42 24.04-27.6l1.91-1.42c20.4-14.06 53.2-15.21 73.09.42m-29 1c-3.93 15.16-6.45 30.56-9 46 2.22 1.4 2.22 1.4 5.69-.12 8.63-3.52 13.34-8.36 17.31-16.88 1.95-6.95 1.38-15.08-1.69-21.56-3.64-3.84-7.14-6.31-12.31-7.44m-12 62-3.86 20.14A515 515 0 0 0 227 512c10.3.64 18.12-1.85 26.18-8.38 6.8-6.06 10.01-11.84 11.1-20.98.25-6.11-.81-11.55-4.69-16.4-5.19-5.06-11.16-6.07-18.2-6.34-2.54 0-2.54 0-5.39 1.1"/><path fill="#ad205d" d="M821.65 443.96c9.12 7.94 9.12 7.94 9.73 13.42-.42 4-1.11 6.29-3.38 9.62-4.35 2.97-7.8 3.55-13 3-6.3-2.13-9.67-4.52-12.82-10.38l-1.74-3.75c-2.29-5.13-2.29-5.13-6.44-8.87-4.8-.7-8.79-.67-13.06 1.69-2.23 2.66-2.86 3.84-2.94 7.31.57 3.69.57 3.69 2 7 1.85 1.1 1.85 1.1 4 2 2.16 1.36 4.26 2.8 6.37 4.23q2.79 1.87 5.64 3.7c8.86 5.71 16.05 10.78 19.68 21 1.08 7.16-.1 12.84-3.69 19.07-7.95 9.68-20.05 14.56-32.26 15.88-13.5.44-27.28-1.67-37.74-10.88-3.62-5.13-5.25-9.68-5-16 1-5.78 3.64-9.27 8.24-12.81 4.56-3.08 8.27-3.67 13.76-3.19 3.27 1.36 5.5 2.5 8 5 .44 3.31.44 3.31 0 7-2.31 2.75-2.31 2.75-5 5l-1.81 1.81L759 506l1 2h-2c4.87 5 6.71 6.17 13.69 6.31 6.08-.05 9.63-.38 14.31-4.31 2.38-3.58 2.27-6.96 1.6-11.08-1.42-4.57-5.34-6.87-9.23-9.23-3.19-1.91-3.19-1.91-6.37-1.69l-1-3h-2a120 120 0 0 1-3.45-3.46c-1.74-1.73-3.6-3.24-5.49-4.79-4.93-4.34-9.33-8.84-10.57-15.49-.3-7.12 1.24-12.61 6.02-17.94 16.82-15.69 48.56-12.38 66.14.64"/><path fill="#ad215e" d="M733.85 369.12A35 35 0 0 1 744 384l2 2c1.06 12.73-.53 24.71-8.6 35.05A34.7 34.7 0 0 1 716 432c-9.83.15-19.92-2.84-27.14-9.66-6.74-8.48-10.68-18.53-9.86-29.34 1.78-10 5.05-18.07 13.19-24.37 13.6-9.16 28.27-8.86 41.66.49"/><path fill="#b74c6c" d="M788 605c2.87 1.8 4.5 2.98 6 6q.11 3.8.06 7.63l-.01 2.14L794 626l1.75.38C798 627 798 627 802 629v-19l-4-1c1.38-1.99 2.56-2.89 4.91-3.5 2.15-.31 2.15-.31 6.09-.5l2 2 1.63-1c3.03-1.28 5.1-1.33 8.37-1 2.81 1.31 2.81 1.31 5 3 1.19 3.56 1.1 6.44 1.06 10.19l-.02 3.85L827 625h2l.38 1.88c.5 2.31.5 2.31 2.62 4.12l-5 3v-2h-12l1-4 3 1c.1-5.79 0-11.3-1-17-3.58-1-3.58-1-7 0q-.04 2.88-.06 5.75l-.04 3.23c.14 4.3 1.08 7.25 3.1 11.02l-3.65-.04-4.73-.02-2.4-.03c-4.24-.14-4.24-.14-8.22 1.09-4.05.26-5.54.3-9-2l-1.7 1.02c-2.67 1.14-4.14 1.06-6.99.67l-2.38-.3C773 632 773 632 772 631c-.25-4.93-.25-8.5 2-13l2.75.06A26 26 0 0 0 784 617h2v-7h-5l-.12 1.81c-.88 2.19-.88 2.19-3.94 3.94L774 617c-2.15-3.23-2.2-4.28-2-8 5.3-3.6 9.56-5.23 16-4m-6.19 16.75L780 624c.14 2.22.14 2.22 1 4l5-1c1-3.58 1-3.58 0-7-2.2-.2-2.2-.2-4.19 1.75M827 626l1 2Z"/><path fill="#b03d5e" d="M648 589c1.24 3.72 1.02 7.08.88 10.95l-.07 2.34-.4 12.42L648 627l3 1-1 1 2 1v2q-6.15.34-12.31.63l-3.54.19-3.39.16-3.12.16C627 633 627 633 624 631l-1.56 1c-3.32 1.36-5.88 1.32-9.44 1-2.44-1.31-2.44-1.31-4-3v-3l-2-1 1-16-4-1 1-3 10-1c2.45 4.74 2.23 9.12 2.13 14.31l-.03 2.54-.1 6.15 8-1-1-17-3-1 1-3 11-1v24l3-1 2 1v-2h2l-1-31-4-2c2.45-2.97 4.45-3.56 8.19-4.19l2.73-.48z"/><path fill="#b4386d" d="m723 363-4 2 1 7-3 1-1-5-2 1c-.65 2.02-.65 2.02-1 4l-3-1c-2.23 4.33-1.92 7.28-1 12h3v4l-4 1-1-4c-1.96 3.5-2.96 7.13-4 11l-4 1c-1.12-3.75-1.12-3.75 0-6l3-2-4-1-1 6-5-1-2 3h-2l-1-2v6l1-1v-1h5l1 5-1.83.08c-5.28.32-5.28.32-9.73 2.98L681 408c-3.44-6.46-2.5-13.7-.81-20.56 3.3-10.7 7.95-16.78 17.81-22.44a37.2 37.2 0 0 1 25-2"/><path fill="#c1707f" d="M577 592h2l1 4-5 1-1 15 5-1c2.31.44 2.31.44 4 1l1-2 6 2c1.42-2.83 1.35-5.47 1.56-8.62l.26-3.6.18-2.78h-5c.38-1.94.38-1.94 1-4 2-1 2-1 5.31-.5 3.4.46 5.4.16 8.69-.5 2 2 2 2 2 5l-3 1 .04 3.55c.05 8.54 0 16.96-1.04 25.45l2 1q2.01 1.49 4 3c-1 1-1 1-2.77 1.11l-2.27-.01-2.45-.01-2.57-.03-2.59-.01L587 632l1-3h4l-1-13-2.96.04-3.85.02-3.83.04C577 616 577 616 574 615l1 12 7 3c-2 2-2 2-3.97 2.23l-2.38-.03-2.58-.02-2.7-.05-2.71-.03-6.66-.1v-3h5v-32h-6l1-4q2.88-.04 5.75-.06l3.23-.04A25 25 0 0 1 577 594z"/><path fill="#b74d6a" d="M855 600c1.88.25 1.88.25 4 1a17 17 0 0 1 2 4l-2 2h-4v2l2 1-1 2-.25 3.31c-.9 4.4-2.39 5.83-5.75 8.69l-1 1c-2.65.45-5.32.7-8 1l3 .38c5.34.77 10.45 1.59 15 4.62 1.43 4.06.76 6.45-.94 10.31l-1.15 2.68L856 646h-3q-2.4.5-4.81 1.06c-4.07.85-7.1.94-11.19-.06h-3v-3l-3-1c-.69-2.19-.69-2.19-1-5 1.44-2.62 1.44-2.62 3-5v-3l.5-2.44c.61-3.14.96-5.63-.5-8.56-.69-6.98-.69-6.98 1.94-10.87 5.02-3.5 10.02-4.13 16.06-4.13l1-2h3zm-13 9c-2.17 3.25-2.21 3.6-1.62 7.19L841 620l5 1c2.45-3.67 2.32-5.66 2-10l-2-2zm-5 27c-.17 2.58-.17 2.58 0 5 5.22 2.66 8.08 3.33 14 2l-1-2h3v-5c-4.75-2.45-11.94-4.06-16 0"/><path fill="#b3385f" d="M720.21 593.67q2.44 1.07 4.79 2.33v11h-4l-.31-1.69A21 21 0 0 0 717 598c-3.16-1.25-4.59-1.14-7.81-.06L707 599v5l3.14 1.57 4.11 2.12 2.07 1.03c4.2 2.18 7.1 4.17 9.68 8.28.9 6.36.9 6.36-.99 9.78-2.3 2.92-4.58 4.85-8.01 6.22-5.54.62-10.89.36-16-2-1.2-2.4-1.1-3.95-1.06-6.62l.02-2.48.04-1.9 2-1 1.31 2.44c1.5 2.84 1.5 2.84 4.69 3.56l-1 2c2.29 1.14 3.6 1.1 6.13 1.06L717 628c.98-3.06 1.32-5.02 0-8-2.86-1.85-2.86-1.85-6.31-3.44-4.7-2.27-7.86-4.1-10.69-8.56a17 17 0 0 1 0-9c4.98-6.44 12.7-7.6 20.21-5.33"/><path fill="#a81857" d="M707 384h1v5l4-1-1 2h-4l1 8 5 1-1 4c3.07-.78 3.07-.78 5-3v3l2 2-3 1c-1.23 3.51-1.23 3.51-2 7-2-1-2-1-3-4-2.5-1.7-2.5-1.7-5-3l2-2c.65-2.57.65-2.57 1-5-3.17 1.83-3.17 1.83-5 5v-4h-8l1 4h4v2l-1.94.81c-2.4 1.08-2.4 1.08-3.06 4.19l5-1c-.19 1.88-.19 1.88-1 4q-2.48 1.04-5 2c-1.8 2.01-1.8 2.01-3 4l2 1v-3l2.38-.94c2.54-.99 2.54-.99 4.62-2.06l-1 4 5-2-2 9c-5.75.46-8.5-.4-13-4-4.24-3.62-7.55-8.15-8.44-13.75.54-2.77 1.23-3.53 3.44-5.25 2.26-.3 2.26-.3 4.69-.19l2.45.08 1.86.11-1-4h-4l3 2h-6c-.12-3.37-.12-3.37 0-7l2-2v4c2.33-.96 2.33-.96 4-4l5 2 1-6 3-1 2 3-4 1v5l4-1 .37-1.9.5-2.48.5-2.46C705 386 705 386 707 384"/><path fill="#bc6279" d="m663 606 .44 9.94.12 2.86.12 2.73.11 2.52c0 1.95 0 1.95 1.21 2.95h6l1-17-4-2 1-2h11c1.23 3.7.87 6.88.56 10.69l-.16 2.12-.4 5.19 2 1h-2v2l2 1 2 3c-1.55 1.55-3.23 1.42-5.37 1.69l-2.4.32C674 633 674 633 671 631l-3 2c-7.7.56-7.7.56-11-2-2.56-4.92-2.4-10.06-2.57-15.47q-.14-2.77-.43-5.53l-2-1v-3q2.19-.3 4.38-.56l2.46-.32C661 605 661 605 663 606"/><path fill="#b64b6c" d="M879 605c3.86 2 7 4.1 9 8 1.15 3.94 1.62 7.35.15 11.26-2.57 4.48-5.1 7.15-10.15 8.74-6.42.71-9.77-.2-15-4-3.21-3.63-3.52-7.1-3.36-11.79.74-4.57 3.85-8.3 7.36-11.21 4.07-1.36 7.75-1.53 12-1m-9.73 5.13c-1.79 2.63-1.67 4.59-1.64 7.75l-.03 3.11A14 14 0 0 0 871 629c3.63.42 3.63.42 7 0 2.8-4.77 2.79-9.62 2-15-2.02-3.28-2.02-3.28-5-5-3.79-.37-3.79-.37-5.73 1.13"/><path fill="#c0537e" d="M648 589c1.24 3.72 1.02 7.08.88 10.95l-.48 14.76q-.19 6.15-.4 12.29l3 1-1 1 2 1v2l-25 1c2.72-2.72 5.37-3.79 9-5l2 1v-2h2l-1-31-4-2c2.45-2.97 4.45-3.56 8.19-4.19l2.73-.48z"/><path fill="#ac3656" d="M768 590v35l3-1-.56 2.31c-.67 2.78-.67 2.78.56 5.69h-18l1-3c2.06-.69 2.06-.69 4-1l-.04-3.48c-.06-9.24.13-18.32 1.04-27.52l-1.87-.87C755 595 755 595 753 593c2.95-1.97 4.65-2.52 8.06-3.19l2.66-.54C766 589 766 589 768 590"/><path fill="#a51643" d="M740 604c4.73.7 8.19 1.39 12.06 4.31 1.94 2.69 1.94 2.69 2.32 5.44C754 616 754 616 753 617c-2.7.24-5.36.42-8.06.56l-2.3.13-5.64.31c1.52 4.3 1.52 4.3 4 8q2.54.1 5.06.06l2.79-.02L751 626v-2h3c-.06 2.25-.06 2.25-1 5-4.7 3.48-8.05 4.85-14 4-3.93-1.63-6.6-3.4-9-7-1.12-5.6-1.33-9.62 1-15 1.88-2.12 3.6-3.39 6-5h3zm0 5c-1.86 2.4-1.86 2.4-3 5h10l-2-5c-2.37-.42-2.37-.42-5 0"/><path fill="#be6379" d="M810 606c2.93.22 2.93.22 5-1 4.63-.41 7.3.14 11 3 1.19 3.56 1.1 6.44 1.06 10.19l-.02 3.85L827 625h2l.38 1.88c.5 2.31.5 2.31 2.62 4.12l-5 3v-2h-12l1-4 3 1c.1-5.79 0-11.3-1-17-3.58-1-3.58-1-7 0q-.04 2.88-.06 5.75l-.04 3.23c.11 3.44.57 5.96 2.1 9.02h-4v-19l-1 1-2-1c-1.85 3.98-2.36 7.44-2.62 11.81l-.23 3.52L803 629h-1v-19l-4-1c3.4-4.12 7.06-4.48 12-3m17 20 1 2Z"/><path fill="#a00f3d" d="M589 592q2.97.39 5.93.82c2.5.22 4.63-.32 7.07-.82 2 2 2 2 2 5l-3 1 .04 3.55c.05 8.54 0 16.96-1.04 25.45l2 1q2.01 1.49 4 3c-1 1-1 1-2.77 1.11l-2.27-.01-2.45-.01-2.57-.03-2.59-.01L587 632l1-3 4-1 1-14h-20v-1h20v-16h-6c.88-3.87.88-3.87 2-5"/><path fill="#b6546b" d="M910 604c1.53 2.43 2.03 3.66 1.75 6.56C911 613 911 613 909 616l-3-2v-2l-4 1c-1.07 3.46-1.1 6.64-1.06 10.25l.02 3.27.04 2.48 4 1v2h-16v-2l4-1q-.17-3.94-.37-7.87l-.1-2.27c-.09-4.4-.09-4.4-2.53-7.86v-5l11-1v2l2.25-1.5C906 604 906 604 910 604m-10 3 1 2Z"/><path fill="#ac1f59" d="m710.31 362.88 3.8.05 2.89.07v1l-10 2c-.3 3.78-.3 3.78 1 6-2.7 1.35-5 1.07-8 1v1l2.38.19c2.62.81 2.62.81 4.12 2.87.72 4.2-.75 7.15-2.5 10.94-2-3-2-3-2-6l-4-1v3c-3.92-.78-7.36-2.4-11-4l-1 5-3-1c.67-5.75 2.08-9.35 6.52-13.17l2.86-2.02 2.83-2.04c5.23-3.32 8.9-4.01 15.1-3.9"/><path fill="#b43a6f" d="M704 400c2.21.1 2.21.1 5-1v8l3 2c.19 2.63.19 2.63 0 5l-4 1 .19 2.69c-.21 3.65-1.1 5.36-3.19 8.31-2-3-2-3-1.62-5.69L704 418l-5 2v-3l-5 1 2 5-4-2c0-3 0-3 1.75-5.19C696 414 696 414 700 414l1-4-5 1 1-4 4-1v-2h-4l-1-4c3.32-1.1 4.67-.77 8 0"/><path fill="#b13e66" d="m874.56 604.88 2.38-.01C879 605 879 605 881 606l-1 5-9-3v2h-2q-.08 3.38-.12 6.75l-.08 3.8c.19 3.26.63 4.7 2.2 7.45v3c-4.32-.17-6.36-.35-9.44-3.5-1.95-4.37-2.41-7.79-1.56-12.5 3.59-6.68 6.83-10.15 14.56-10.12"/><path fill="#be6478" d="M788 605c2.75 1.42 2.75 1.42 5 4 .61 3.27.47 6.44.31 9.75l-.07 2.7q-.08 3.27-.24 6.55l-2-4h-2v4l-2-1 .3-6.05-.3-1.95-3-2h2v-7h-5l-.12 1.81c-.88 2.19-.88 2.19-3.94 3.94L774 617c-2.15-3.23-2.2-4.28-2-8 5.13-3.49 9.73-5.5 16-4"/><path fill="#b63767" d="M708 362c10.56-.18 10.56-.18 15 1l-4 2 1 7-3 1-1-5-2 1c-.65 2.02-.65 2.02-1 4l-3-1c-2.23 4.33-1.92 7.28-1 12h3v4l-4 1-1-4c-1.96 3.5-2.96 7.13-4 11l-4 1c-1.12-3.75-1.12-3.75 0-6 3-2 3-2 5-3 .61-2.32.61-2.32 1-5l.63-2.62c.58-2.52.58-2.52-.63-5.38h-5v-3h6c.15-2.07.15-2.07-1-4h2v-2l5-2z"/><path fill="#b74274" d="m710 374 5 1 1 3 3-1c1.05 3.98.84 6.98 0 11h2l2 8c-3.3 1.12-5.05.9-8.25-.44l-2.14-.87L711 394v-3l-2 1c.27 1.98.27 1.98 1 4l3 1v1h-5q-1.1-2.97-2-6c1-2 1-2 3.44-2.81 2.8-.97 2.8-.97 3.87-3.81L714 383h-3c-2.12-6.75-2.12-6.75-1-9"/><path fill="#b34b61" d="M835 631h3v2h15c2.09 4.18 2.17 4.8 1 9l2 1-1 3h-2l-4.75 1.06c-4.09.85-7.15.94-11.25-.06h-3v-3l-3-1c-1.03-3.26-1.22-4.55.31-7.69C833 633 833 633 835 631m2 5c-.17 2.58-.17 2.58 0 5 5.22 2.66 8.08 3.33 14 2l-1-2h3v-5c-4.75-2.45-11.94-4.06-16 0"/><path fill="#b14360" d="M633 605v25l3 1-9 1v-3l-1-2q-.11-2.06-.1-4.13l.01-2.44.03-2.55.01-2.58.05-6.3-4 1v-4l4.38-.5 2.46-.28C631 605 631 605 633 605"/><path fill="#b84a76" d="M766 592h1l1 33 3-1-.56 2.31c-.67 2.78-.67 2.78.56 5.69h-18l1-3h2v2l5-1 .08-2.77a5432 5432 0 0 1 .6-20.96l.11-3.86c.18-2.91.54-5.57 1.21-8.41h2z"/><path fill="#a7204f" d="M837 623h2v5l1.87-.32c6.19-.88 11.62-.98 17.13 2.32 1.75 2.75 1.75 2.75 2 6a37 37 0 0 1-3 7l-4-1 .56-2.31c.67-2.78.67-2.78-.56-5.69l-15-1v-2l-5-1 1-5h3z"/><path fill="#b64a61" d="M720.21 593.67q2.44 1.07 4.79 2.33v11h-4l-.31-1.69A21 21 0 0 0 717 598c-3.16-1.25-4.59-1.14-7.81-.06L707 599c-.35 3.72-.35 3.72 1.5 6.81L710 607l-3 1-1-3h-4l-2 3c-.92-7.79-.92-7.79 1.27-10.68 5.71-4.7 11.8-5.82 18.94-3.65"/><path fill="#b22f57" d="M677 371c0 3 0 3-1.56 4.88-1.75 2.08-1.75 2.08-1.13 4.87L675 383l4-7c1 3 1 3 .07 5.03l-1.38 2.47c-3.9 8.04-4.08 16.72-4.69 25.5l-2-1v-16c-3.11.67-3.11.67-4.19 3.06L666 397c-.77-6.35.4-10.69 3.25-16.37l.9-1.84c1.82-3.44 3.53-5.75 6.85-7.79"/><path fill="#9f113e" d="M644 591h3v38l4 1v1h-14l4-1v-35l2 1c.38 2.21.38 2.21.56 4.94.2 3.67.2 3.67 1.44 7.06a192 192 0 0 1-.44 8.13L644 624h2v-32z"/><path fill="#a61354" d="M711 368h5l1 6h6v3h2v-2h2v3l-4 2 1 7 4-2c-1.75 3.88-1.75 3.88-4 5l-2 3-3-2h2v-3h-2v-11l-4 2-1-4-4-1 1 9h3l-1 5-1-4h-3c-2.47-7.56-2.47-7.56-1-11l2-3 3 3 1-4z"/><path fill="#b43c6e" d="M709 391h2l1 3 10 2 1-3h2v3l3 1c-.52 3.78-1.33 6.22-4 9h-3v2h-2v2h-3v-4l2-1-2-2h-4v-6l-2-1v-3l-2-1z"/><path fill="#a6134b" d="m568 596 5 1v33l-5-2-.65-17.68-.37-10.36C567 597 567 597 568 596"/><path fill="#a11442" d="M823 609h2c1.14 4.88 1.32 9.74 1.52 14.74.1 4.08.1 4.08 2.48 7.26h-13l4-1-1-20h2l1 2z"/><path fill="#a2113f" d="m806 610 4 1-1 19 4 1h-13v-2h3l-.1-2.63c-.27-11.45-.27-11.45 3.1-16.37"/><path fill="#a71753" d="M653 607h9v20l-4 2c-1.8-4.62-2.22-8.43-2.12-13.37l.05-3.78.07-2.85h-3z"/><path fill="#ba5c6e" d="m701 619 2.38 2.44c2.34 2.55 2.34 2.55 4.62 3.56l-1 2c2.25 1.12 3.51 1.13 6 1.13h2.13c1.96-.02 1.96-.02 3.87-1.13v3l2 1c-5.5 3.2-11.54 2.6-17.56 1.13C701 631 701 631 700 629a70 70 0 0 1-.12-4.56l-.01-2.44c.13-2 .13-2 1.13-3"/><path fill="#b64767" d="M846 609c3 1 3 1 5 4l2-2c.13 6.75.13 6.75-1 9l2 1c-4.26 4.13-7.29 4.61-13 5l2 2h-4v-5h-2v2l-2-1c-.62-2.56-.62-2.56-1-5l7 3 1-2h4c1.5-2.99 1.12-5.7 1-9z"/><path fill="#a00d3b" d="M670 607h9v22h-1l-2-7-2 6h-1v-18h-3z"/><path fill="#b23d54" d="m199 520 1 4h47v2h-49z"/><path fill="#ab1e50" d="M788 607c3.7.7 3.7.7 5 2q.12 2.13.1 4.25l-.01 2.6-.03 2.71-.01 2.73L793 628l-2-4h-2v4l-2-1 .3-6.05-.3-1.95-3-2 3-1-.06-3.94q-.04-2.02.06-4.06z"/><path fill="#c06b82" d="M669 606h11c1.23 3.7.87 6.88.56 10.69l-.16 2.12-.4 5.19 2 1h-2v2l2 1 2 3c-1.9 1.9-4.57 1.12-7.09 1.13C675 632 675 632 673 631l.4-1.76c1-4.4 1.91-8.78 2.6-13.24h1l1 8 1-17h-9l-1 2z"/><path fill="#a30f4e" d="m721 413 1 4h2l1-4 1 4-5 1v2l4 1-1 2-3-2-1 7h4v2c-4.84 1.34-8.93 2.25-14 2v-2l-3-1h8l1-4h2l-1-6h2z"/><path fill="#bb5d6e" d="m740 604 9 2-3 1 1 2.31c1 2.69 1 2.69 1 5.69h-12l-1-4c-2.64 3.13-3.84 6.09-5 10-1.36-4.1-.58-6.02 1-10 1.87-2.14 3.6-3.38 6-5h3zm0 5c-1.86 2.4-1.86 2.4-3 5h10l-2-5c-2.37-.42-2.37-.42-5 0"/><path fill="#ae2c4b" d="M546 560h2c-.61 4.48-2.38 8.13-4.5 12.06l-1.06 1.98A96 96 0 0 1 530 592h-2l-.81 1.81A18 18 0 0 1 523 599l-3-1 1.84-1.66C532.8 585.97 540.24 573.9 546 560"/><path fill="#b32e61" d="m684 362 2 1q-.45.74-.94 1.5c-1.02 2.4-1.27 4-1.5 6.56C683 375 683 375 681.44 377l-1.44 1-1-1-4 7-2-2c.33-4.01 1.95-6.61 4-10v-3c1.53-1.82 1.53-1.82 3.5-3.69l1.97-1.88q.74-.7 1.53-1.43"/><path fill="#ac235b" d="M716 421c1 3 1 3 .38 5.63-1.38 2.37-1.38 2.37-3.75 3.12L710 430l-1.81.63c-3.03.51-4.96-.32-7.82-1.38l-2.9-1.05C695 427 695 427 693 424l10 2 1-2 1 1 2-2 1.81.56c2.37.71 2.37.71 4.94-1z"/><path fill="#cc869f" d="M699 372c7.42 2.28 7.42 2.28 9.5 4.88.57 2.44.64 4.62.5 7.12h3v4l-4 1-1-4c-1.96 3.5-2.96 7.13-4 11l-4 1c-1.12-3.75-1.12-3.75 0-6 3-2 3-2 5-3 .61-2.32.61-2.32 1-5l.63-2.62c.58-2.52.58-2.52-.63-5.38h-5z"/><path fill="#ba5970" d="M624 609h2l.5 8.81.14 2.53.27 4.67c.1 2.33.09 4.66.09 6.99h-4l-3 1c-6.26.46-6.26.46-9.44-1.5L609 630l1-6c4 4.75 4 4.75 4 7h2v-3l9-1z"/><path fill="#ae2a4a" d="M412 582c3.76.55 6.08 1.5 9.13 3.75 10.14 7 21.65 10.9 33.87 12.25v1c-5.75 1.01-10.04.94-15.62-.94l-2.07-.67c-9.52-3.28-18.39-8-25.31-15.39"/><path fill="#a1123f" d="M891 607h7c.82 6.38 1.12 12.57 1 19l-2-2-1 5c-2.82-4.23-2.42-8.45-2.57-13.37q-.14-2.82-.43-5.63l-2-1z"/><path fill="#be6476" d="M855 600c1.88.25 1.88.25 4 1a17 17 0 0 1 2 4l-2 2h-4v2l2 1-1 2q-.55 3.5-1 7h-1l-1-11-5.25-.44c-3.36-.28-6.5-.64-9.75-1.56l4.25-1 2.4-.56C847 604 847 604 851 604l1-2h3z"/><path fill="#b76579" d="m890 606 1 3 3 1 1 16 3-3 1 7h6v2h-16v-2l4-1q-.17-3.94-.37-7.87l-.1-2.27c-.09-4.4-.09-4.4-2.53-7.86-.12-2.62-.12-2.62 0-5"/><path fill="#c9898f" d="M589 592q2.97.39 5.93.82c2.5.22 4.63-.32 7.07-.82 2 2 2 2 2 5l-3 1 .04 3.55c.05 8.54 0 16.96-1.04 25.45l2 1v2l-3-1v-34c-6.14.68-6.14.68-12 2 .88-3.87.88-3.87 2-5"/><path fill="#b12c51" d="M347 442a17 17 0 0 1 3 3l-1 2-2-1-1 2-1-3c-4.88.42-6.85 2.36-10 6-3.5 4.67-5.76 9.65-8 15h-2c1.17-9.32 7.46-18.32 14.63-24.12 2.96-1.1 4.42-.97 7.37.12"/><path fill="#a9175a" d="M594 596h4c.24 18.88.24 18.88-3 26h-1z"/><path fill="#b04b62" d="M572 616h1l.2 2.3c.43 5.67.43 5.67 3.5 10.1 2.12.92 2.12.92 5.3 1.6-2 2-2 2-3.97 2.23l-2.38-.03-2.58-.02-2.7-.05-2.71-.03-6.66-.1v-3l3.38-.37c3.65-.28 3.65-.28 5.62-2.63l1 3 2 1-1-2a135 135 0 0 1-.06-6.12l.02-3.33z"/><path fill="#be6176" d="M781 617q3.5.43 7 1c.29 3.05.43 5.96 0 9-2.64 2.5-4.21 2.95-7.81 3.19L778 630a11.2 11.2 0 0 1 0-8h-4v-4l2.94.06c2.93.3 2.93.3 4.06-1.06m.81 4.75L780 624c.14 2.22.14 2.22 1 4l5-1c1-3.58 1-3.58 0-7-2.2-.2-2.2-.2-4.19 1.75"/><path fill="#d6aeac" d="M639 595h2v35h11v2l-25 1c2.72-2.72 5.37-3.79 9-5l2 1v-2h2z"/><path fill="#aa2648" d="M800 436v1l-2.08-.03-9.42-.1-3.27-.05c-6.14-.03-11.33.45-17.23 2.18-3 .13-3 .13-5 0 8.74-8.01 26.81-7.49 37-3"/><path fill="#ae2e50" d="M632 400c2.25.13 2.25.13 5 1 2.82 3.2 3.9 5.33 4.5 9.56-.6 4.07-1.53 5.63-4.5 8.44-4.16 2.47-7.36 2.05-12 1l-2-2 2.27-.08c6.01-.26 6.01-.26 11.42-2.6 1.77-3.12 1.96-4.79 1.31-8.32-2.35-2.77-2.35-2.77-5-5z"/><path fill="#b45567" d="M880 614h1v14l5-2c-1.03 2.98-1.97 3.98-4.62 5.75-4.2 1.55-6.93 1.62-11.38 1.25l-2-2h3v-2l7-1 .18-1.8c.44-4.11.9-8.16 1.82-12.2"/><path fill="#ac2b46" d="M602 435q6.09-.09 12.19-.12l3.48-.06q1.67 0 3.37-.02l3.1-.03c2.99.24 5.15.97 7.86 2.23l-1 2-27-1-1 7h-1z"/><path fill="#b13f67" d="M867 612h1l.15 2.48.23 3.27.2 3.23c.4 2.86 1.08 4.52 2.42 7.02v3c-6.52-.5-6.52-.5-8.94-3.06L861 626c1-2 1-2 3-3 .4-2.06.4-2.06.5-4.44.28-4.34.28-4.34 2.5-6.56"/><path fill="#ad2547" d="m517 601 3 1c-4.75 4-4.75 4-7 4v2c-19 10.84-19 10.84-27 10a46 46 0 0 1 8.34-4.26 92 92 0 0 0 20.3-11.33z"/><path fill="#bd667a" d="M835 631h3v2h15c2.09 4.18 2.17 4.8 1 9l2 1-1 3-1.56-.44c-3.13-.72-6.27-1.13-9.44-1.56a37 37 0 0 1 6-4l3 1-1-5a29 29 0 0 0-8.62-1.12l-2.36-.01c-2.09 0-2.09 0-4.02 1.13v-3l-4 1z"/><path fill="#ab1958" d="M627 608h3l1 22h-2v2l-3-1 1-3q.11-2.33.1-4.67l-.01-2.7-.03-2.82-.01-2.85z"/><path fill="#b33557" d="M321 490h8v1h-7c1 8.2 1.88 13.72 7.69 19.75 3.55 1.92 7.36 2.53 11.31 3.25v1c-8.64.45-8.64.45-12.81-.94-4.42-4.17-6.95-8.42-7.5-14.54q-.01-4.77.31-9.52"/><path fill="#ae2a4a" d="M285 416h2c.62 9.66-1.64 16.57-7.94 24-2.8 3.11-5.09 4.67-9.06 6 1.14-3.41 2.06-4.07 4.81-6.25 8-6.9 9.02-13.55 10.19-23.75"/><path fill="#aa1c4f" d="m881 613 5 1-1 7 3 1c-.12 1.88-.12 1.88-1 4l-6 2z"/><path fill="#b13654" d="M364 513h1l-1 11h20v2h-17l-1 2v-2l-5-1c.86-8.57.86-8.57 3-12"/><path fill="#a81248" d="m674 385-.5 2.94c-.62 4.34-.61 8.62-.56 13L673 409l-2-1v-16c-3.11.67-3.11.67-4.19 3.06L666 397v-7l3-1v-2c3-2 3-2 5-2"/><path fill="#b12e51" d="M257 464c1.75.06 1.75.06 4 1 3.84 5.2 5.14 10 5.13 16.44v3.43A26 26 0 0 1 265 492h-2l.1-3.25.09-4.31.07-2.14c.1-6.91-1.87-11.86-6.26-17.3z"/><path fill="#bd527f" d="m704 400 1 7h-2l-2 4h-5l1-4 4-1v-2h-4l-1-4c3.29-1.1 4.71-.8 8 0"/><path fill="#a81d45" d="M737 430c-1 3-1 3-2.5 4.1-10.24 5.09-21.3 6.26-32.5 3.9v-1l3.73-.04c10.19-.25 18.16-1.07 27.27-5.96 2-1 2-1 4-1"/><path fill="#a91b5b" d="M570 608h2l1 22-5-2 .44-8.31.12-2.38.12-2.3.11-2.1C569 611 569 611 570 608"/><path fill="#950a27" d="M854 607v13h-2v-7l-2 2-2-5-3.25-.44c-2.67-.4-5.16-.84-7.75-1.56 5.83-2.83 10.68-1.7 17-1"/><path fill="#b9536b" d="m718 595 7 1v11h-4l-.37-1.75c-.55-2.27-.55-2.27-1.7-4.25-.93-2-.93-2-.93-6"/><path fill="#cd9aa2" d="M826 611h1v14h2l.38 1.88c.5 2.31.5 2.31 2.62 4.12l-5 3v-2h-12l1-4 3 1 1-4v5h7l-1-1q-.12-2.01-.1-4.04l.01-2.45.03-2.57.01-2.59zm1 15 1 2Z"/><path fill="#ac2243" d="m676.19 439.38 1.81.62-1.94 1.47c-5.05 3.91-9.5 7.85-13.59 12.76A72 72 0 0 1 657 460c1.23-8.01 8.35-13.8 14-19 3-2 3-2 5.19-1.62"/><path fill="#a92e4e" d="M906 604h4c1.53 2.43 2.03 3.66 1.75 6.56C911 613 911 613 909 616c-3.48-2.32-4.3-4.26-6-8h2z"/><path fill="#ae2848" d="M628 449c1.75 5.27-.08 10.24-1.25 15.5l-.66 3.17-.67 3.05-.6 2.78c-.87 2.66-2.02 4.37-3.82 6.5.62-6.48 1.67-12.71 3.06-19.06l.57-2.63L626 452h2z"/><path fill="#b33858" d="M386.82 434.73h2.81l2.93.02 2.95-.02h2.8l2.58.01C403 435 403 435 405 437c-1.87 6.75-1.87 6.75-3 9l-2-1 2-8h-23c3.22-2.14 4.11-2.26 7.82-2.27"/><path fill="#9a082c" d="M653 607h9v20h-1l-1-18h-3v14h-1v-14h-3z"/><path fill="#a71a3f" d="M364 549h26v1l-23 1 1 8-1-2h-2z"/><path fill="#b13654" d="m626 521 3 2-3.75 1.44-2.1.8a33 33 0 0 1-11.71 1.88l-2.88.01C606 527 606 527 603 526v-2l2.5.1c6.71.17 12.18-.2 18.48-2.64z"/><path fill="#b24765" d="M837 633v11h-5c-2-3-2-3-1.87-6.06.87-2.94.87-2.94 2.8-4.32C835 633 835 633 837 633"/><path fill="#ac2548" d="M392 556c3.85 1.28 4.27 2.68 6.31 6.13a61 61 0 0 0 7.19 9.87l2.5 3-1 3c-15-15.67-15-15.67-15-22"/><path fill="#b43568" d="M688 398h5l1 5-1.83.08c-5.28.32-5.28.32-9.73 2.98L681 408l-1-5c2.36-2.1 3.55-2.97 6.75-3.19l2.25.19z"/><path fill="#ac2a48" d="M760 525h29c-6.87 5.15-13.99 4.11-22.3 3.55C764 528 764 528 760 525"/><path fill="#b33b61" d="M758 390c3.73 3.73 3.07 9.53 3.13 14.56-.04 3.91-.3 7.6-1.13 11.44-2.23-3.35-2.24-4.42-2.2-8.32l.02-3.12.05-3.25.03-3.28z"/><path fill="#b13a59" d="M848 627c7.63 1.75 7.63 1.75 11 4 1.51 4.19.6 6.95-1 11-2.7-4.06-5-8.05-5-13h-5z"/><path fill="#a20f41" d="M842 629h11c4 9.5 4 9.5 4 14l-4-1 .56-2.31c.67-2.78.67-2.78-.56-5.69l-1.9-.08-2.48-.17-2.46-.14L844 633z"/><path fill="#c67a89" d="m834 619 7 3 1-2h5v2l3 2c-2.05 2.05-6.3 1.7-9 2l2 2h-4v-5h-2v2l-2-1c-.62-2.56-.62-2.56-1-5"/><path fill="#b95673" d="M736 618c1.13 1.56 1.13 1.56 2 4-.87 3.75-.87 3.75-2 7h2v2l8 1v1c-6.12.5-9.15-.48-14-4-1.44-2.75-1.44-2.75-2-5h5z"/><path fill="#ac2447" d="m749.16 488.4 1.84.6-1.68 1.17-2.2 1.58-2.17 1.55c-3.27 2.86-4.15 5.71-4.58 9.95L740 507h-2c-.37-4.69-.48-8.05 1.69-12.31 5.97-6.94 5.97-6.94 9.47-6.29"/><path fill="#af244d" d="M288 473c3.65 3.65 3.7 5.35 4.08 10.28-.13 4.23-1.43 7.86-3.08 11.72h-1z"/><path fill="#aa1f5b" d="M707 384h1v5l4-1-1 2h-4l.63 3.38.37 3.62-2 2h-3c-1.34-4.02-.37-6.04 1-10 1.56-2.94 1.56-2.94 3-5"/><path fill="#d2a1a7" d="M793 611h1v15l4 1c2 2 2 2 2 3h14v2h-16l-1-3h-4z"/><path fill="#ac2045" d="M665 398c2.75 2.75 2.58 5.55 2.94 9.25.54 5.3 1.52 9.06 4.06 13.75v2h-2c-4.82-8.44-5.63-15.37-5-25"/><path fill="#a51443" d="m779 622-.56 2.25c-.43 2.7-.3 4.2.56 6.75q-2.5.06-5 0c-1-1-1-1-1.1-2.85l.1-6.15c2.5-1.25 3.41-.78 6 0"/><path fill="#a80c44" d="m791 612 2 1v15l-2-4h-2v4l-2-1 1-7 3-1-.56-1.81C790 615 790 615 791 612"/><path fill="#ab2445" d="m587 400-2.87 1.63q-2.07 1.18-4.13 2.37l-2.66 1.53-2.72 1.6-2.58 1.5c-2.17 1.21-2.17 1.21-3.04 3.37l-2-1c1.3-3.89 2.86-4.45 6.31-6.56l2.93-1.82c6.85-4.02 6.85-4.02 10.76-2.62"/><path fill="#b04e63" d="m598 625 .63 1.94c1.27 2.4 1.27 2.4 4.5 2.81l2.87.25-1 2h-18v-2h11v-2l-3-1z"/><path fill="#ae2c49" d="M621 394v2h-23v-2c7.8-1.15 15.17-.8 23 0"/><path fill="#b44273" d="M710 365c2 1 2 1 3.19 3.44C714 371 714 371 713 373l-3-1-2 3-5-1 4-3-2-3h2v-2z"/><path fill="#ac2244" d="m356 507 3 1c-8.28 5.97-14.76 8.42-25 8v-1l2.75-.19c6.76-.94 13.6-4.05 19.25-7.81"/><path fill="#a81556" d="m700 376 7 2-3 10c-2-3-2-3-2-6h-2v-2l-2-1h2z"/><path fill="#b9526e" d="M749 607c3 1 3 1 5 4 .19 2.63.19 2.63 0 5-1 1-1 1-4.82 1.1q-2.37 0-4.74-.04l-2.45-.01L736 617v-1h14l1-5h-2z"/><path fill="#ba496f" d="m176 431 1 4 2-2q-.92 7.5-2 15h-1l-1 8h-1q-.08-4-.12-8l-.06-2.25c-.04-5.26.72-9.7 2.18-14.75"/><path fill="#ae2b48" d="M529 519h2c-1.05 17.05-1.05 17.05-6 22 .64-7.53 2.2-14.67 4-22"/><path fill="#af2b52" d="M263 392c5.99.3 10.5 3.23 15 7v2h2l-1 3-2.94-2.69c-4-3.45-8.37-5.9-13.06-8.31z"/><path fill="#b2345b" d="m722 617 2 1c.52 1.96.52 1.96.81 4.38l.33 2.4c-.14 2.22-.14 2.22-1.44 4C722 630 722 630 719 630c-.62-2.81-.62-2.81-1-6l2-3 1 3z"/><path fill="#ce9797" d="M672 610h1v21h2l-1 2-5-2v-2h-5v-3l1 1h6z"/><path fill="#b13654" d="M511 525v2c-6.46 1.95-12.27 2.22-19 2v-2l7.25-1 2.07-.29c3.27-.44 6.36-.71 9.68-.71"/><path fill="#ad2446" d="M499 449c1 3 1 3-.18 5.81l-1.7 3.19c-2.31 4.4-2.31 4.4-4.12 9h-2l-1 2c.59-7.46 4.43-14.2 9-20"/><path fill="#a71246" d="m701 601 1 4h4l2 2c2.07.64 2.07.64 4 1l-1 3-5-2v2h-2v-2h-3z"/><path fill="#a71d3f" d="m643 500 1 2a141 141 0 0 1-5 5h-2l-1 3c-1.52 1.2-1.52 1.2-3.37 2.25l-1.84 1.08C629 514 629 514 626 513h2v-2c1.76-1.33 1.76-1.33 4.13-2.81 3.89-2.5 7.39-5.15 10.87-8.19"/><path fill="#b33858" d="M230 488h1a311 311 0 0 1-3 23h-1l-.06-7.12-.03-2.02c-.02-4.06.16-7.9 1.09-11.86z"/><path fill="#ba4565" d="M464 469c1.03 3.27.96 5.86.56 9.25l-.3 2.7L464 483h-2v17h-1c-.33-10.85-.11-20.51 3-31"/><path fill="#ad284e" d="M743 386c3.55 4.01 3.43 7.05 3.3 12.23-.41 3.77-1.52 6.43-3.3 9.77-1.13-3.52-1.13-3.52-.53-5.69.74-3.2.62-6.27.6-9.56q-.03-1.88-.03-3.83z"/><path fill="#ca7899" d="m725 378 2 1Zm-2 1c2 1 2 1 4 3l1-2h3v3h-2v2l-5 2c-1.43-2.35-2.09-3.48-1.62-6.25z"/><path fill="#b02855" d="M701 609h3v2h2v-2l5 1 .38 1.94.62 2.06 2 1c-8.2-.2-8.2-.2-11.56-3.56z"/><path fill="#b53c5d" d="M335 433c8.01-.49 13.95.01 21 4l-2 4-2-1v-3a95 95 0 0 0-17-3z"/><path fill="#c2677e" d="m614 609-3 7h-1l-1 11-2-1 1-16-2-1c3.05-.98 4.95-.98 8 0"/><path fill="#b53563" d="M744 365c2.96 2.8 5.44 5.18 7 9l-3-1q-2.5-.06-5 0h-3l-1-2 5-1z"/><path fill="#ab374f" d="M701 619c3.36 3.36 4 6.29 4 11l-5-1-.06-4.44-.04-2.5c.1-2.06.1-2.06 1.1-3.06"/><path fill="#b4395a" d="M489 618c-5.7 3.8-12.28 4.29-19 4 2-3 2-3 4.64-3.77l3.17-.48 3.15-.52c2.95-.22 5.2.03 8.04.77"/><path fill="#b63b5a" d="M708 471c1.05 3.33.98 6.04.63 9.5l-.28 2.84c-.3 2.3-.73 4.44-1.35 6.66h-2l-1 2c1.93-14.78 1.93-14.78 4-21"/><path fill="#b94473" d="m721 421 3 1v2h2v3l3 1c-3.38.84-5.67 1.1-9 0z"/><path fill="#ac1b59" d="m678 421 5 3c-1 3-1 3-2 4l-1 2c-3.74-1.25-4.19-2.63-6-6l4-1z"/><path fill="#b22e4f" d="m468 514 1.32 1.2c2.95 2.63 5.5 4.7 9.06 6.49L481 523l1 3c-5.82-1.3-10.11-4.57-14-9z"/><path fill="#b73f5e" d="M648 480h1q.08 3.09.13 6.19l.07 3.48c-.2 3.3-.66 5.43-2.2 8.33-2.62 1.81-2.62 1.81-5 3 2-4 2-4 3-5.72 1.3-2.97 1.68-5.82 2.13-9.03l.5-3.55z"/><path fill="#b52c68" d="M705 355v2l2 1c-5.14 4.43-5.14 4.43-9 5l2-4-3-2c2.9-1.26 4.8-2 8-2"/><path fill="#bc6373" d="M751 624h3c-.25 2.38-.25 2.38-1 5-2.06 1.31-2.06 1.31-4 2v-2l-7-1v-1l9-1z"/><path fill="#9f0c36" d="M838 610h1l.37 2.59.5 3.35.5 3.34.63 2.72 2 1c-3.79-.53-6.17-1.38-9-4v-2h3z"/><path fill="#b5596f" d="m777 607-1 7 2 1-4 2c-2.14-3.2-2.48-4.28-2-8 3-2 3-2 5-2"/><path fill="#a00c38" d="M746 607h3v4h2l-1 5h-13v-1h11z"/><path fill="#ab2044" d="m752 463 1.56 2a351 351 0 0 0 9.44 11l-3 1a305 305 0 0 1-4-4.19l-2.25-2.35c-1.99-2.79-2.13-4.12-1.75-7.46"/><path fill="#b33a5c" d="m201 416 3 1-1.06 1.94c-2.69 5.1-4.56 9.28-4.94 15.06h-1c-1.79-7.42.18-11.55 4-18"/><path fill="#ae2c55" d="M707 429h17c-3.28 2.19-4.83 2.35-8.69 2.63l-3 .22-2.31.15v-2z"/><path fill="#b02b51" d="M597 401c4.98.47 8.11 1.83 12 5a22 22 0 0 1 1 4l-3-2.44c-4-2.89-7.13-3.3-12-3.56z"/><path fill="#b21f65" d="M677 373c1.25 1.56 1.25 1.56 2 4-1.07 2.57-2.47 4.65-4 7l-2-2c.3-3.84 1.52-6.1 4-9"/><path fill="#c78389" d="M880 614h1v14l5-2-2 4-6-1c.96-10.56.96-10.56 2-15"/><path fill="#c5758a" d="m768 590-1 2c-2.67.74-5.3 1.4-8 2l-2.14.68-1.86.32-2-2c2.95-1.97 4.65-2.52 8.06-3.19l2.66-.54C766 589 766 589 768 590"/><path fill="#ae2446" d="M701 501c0 4-1.32 5.1-4 8-2.62 1.88-2.62 1.88-5 3l-2-1a26 26 0 0 1 5.5-6.12l1.84-1.58C699 502 699 502 701 501"/><path fill="#a81e40" d="M263 425c1 3 1 3 .36 4.87A55 55 0 0 1 256 441l-2-1z"/><path fill="#ac1d4b" d="M220 409h1l.06 5.19.04 2.92c-.1 2.75-.48 5.21-1.1 7.89-2-2-2-2-2.27-4.24l.02-2.63-.02-2.62c.28-2.61.95-4.26 2.27-6.51"/><path fill="#a61051" d="m687 392 1 4c2.33-.96 2.33-.96 4-4l1 5-4 2 3 2h-6c-.12-6.75-.12-6.75 1-9"/><path fill="#aa2048" d="M753 379h2c3.25 6.2 3.67 12.06 4 19a46 46 0 0 1-3.56-8.94l-.76-2.52c-.67-2.5-1.2-5-1.68-7.54"/><path fill="#d1a5a6" d="m852 602 3 1h-2l1 4h-16c2.87-2.87 6.13-2.7 10-3h3z"/><path fill="#b33152" d="M730 498c1.56 4.02.46 7.7-.44 11.75l-.44 2.11L728 517h-1c-.18-11.52-.18-11.52 1-17h2z"/><path fill="#b02f51" d="m397 466 2 1q-.43 2.88-.87 5.75l-.5 3.23A22 22 0 0 1 395 483c-1.8-6.08.16-11.17 2-17"/><path fill="#ad2649" d="M348 462c1 3 1 3-.07 5.23l-1.62 2.4-1.57 2.4c-1.91 2.17-2.93 2.61-5.74 2.97q1.68-2.7 3.38-5.37l1.9-3.03C346 464 346 464 348 462"/><path fill="#b43257" d="M508 441c5.75.75 5.75.75 8 3 .2 3.26.2 3.26.13 7.13l-.06 3.88L516 458h-1v-11l-2-1v-3h-6z"/><path fill="#c97b95" d="m687 380 6 1v2l-7 2zm-5 2 3 1 1 3-2 1v-2h-2l-1 2z"/><path fill="#9a112f" d="m876.19 605.94 2.73.02 2.08.04-1 5-1.56-1c-3.22-1.32-6-1.13-9.44-1l-1-2c3.01-1 5.04-1.1 8.19-1.06"/><path fill="#af3855" d="M702 597h3v7h-2l-1-2-1 6h-1q-.08-2.2-.12-4.37l-.08-2.47c.2-2.16.2-2.16 2.2-4.16"/><path fill="#ad294e" d="M394 596c5.67 1.32 7.66 3.49 11 8-3.56 0-4.41-.76-7.19-2.87l-2.17-1.62L394 598z"/><path fill="#ad2545" d="m524 472 1 3c-2.6 4.4-6 7.68-11 9 1.1-3.28 1.83-3.92 4.44-6a23 23 0 0 0 5.56-6"/><path fill="#aa2248" d="m415 440-4.87 4-2.75 2.25C405 448 405 448 403 448c.4-2.44.74-3.73 2.49-5.52l1.82-1.3 1.8-1.32c2.37-1.08 3.5-.72 5.89.14"/><path fill="#a71e40" d="M521 438c3.82 1.5 5.83 3.52 8 7 .25 3.81.25 3.81 0 7-2-2-2-2-3.44-5.44-1.35-3.1-2.17-4.4-4.56-6.56z"/><path fill="#a41250" d="M697 405c2.13.38 2.13.38 4 1l-1.94.81c-2.4 1.08-2.4 1.08-3.06 4.19l5-1-1 4-6 1 1-3-.06-2.56C695 407 695 407 697 405"/><path fill="#b43357" d="m679 393 3 1v11l-1-2h-2z"/><path fill="#be6b79" d="M905 606v4l1 2-1.87.31c-2.5.57-2.5.57-4.13 3.69-.75-2.75-.75-2.75-1-6 3.05-4 3.05-4 6-4"/><path fill="#b54c69" d="m644 591-1 4h-8l1-3c2.7-1.35 5-1.07 8-1"/><path fill="#aa2042" d="m646 564 2.16.62c5.28 1.49 10.39 2.77 15.84 3.38v1c-12.22.4-12.22.4-17-2z"/><path fill="#ad2545" d="M331 452c1.3 3.92.32 5.04-1.44 8.69l-1.43 3L327 466h-2c.59-4.7 2.56-10.56 6-14"/><path fill="#b4395a" d="M744 403c1.25 2.95 1.01 3.97-.21 7.02l-1.73 3.23-1.71 3.27L739 419c-1.09-3.24-.94-5.02.31-8.19l.8-2.1C741 407 741 407 743 406z"/><path fill="#b23a5c" d="m885 612 3 1 1 9-4-1z"/><path fill="#a60d42" d="M823 609h2c1.06 4.28 1.12 8.43 1.06 12.81l-.01 2.1L826 629h-1l-1-7.75-.29-2.21A78 78 0 0 1 823 609"/><path fill="#b13653" d="M438 596c5.7.54 11.35 1.14 17 2v1c-6.56 1.31-10.83.53-17-2z"/><path fill="#b12f4f" d="M367 490h1c.34 4.22.22 6.58-1.75 10.38-2.34 2.73-2.92 3.02-6.25 3.62l1.02-1.54c2.63-4.06 4.68-7.75 5.98-12.46"/><path fill="#b33455" d="M539 476c1.45 2.34 2.04 3.58 1.76 6.36l-.63 2.39-.62 2.42L539 489h-2l-1 3c.59-5.5 1.57-10.65 3-16"/><path fill="#ad2650" d="M265 450c5.98-.75 9.32 1.68 14 5-3.92 1.3-5.04.32-8.69-1.44l-3-1.43L265 451z"/><path fill="#ae445f" d="m792 628 5 1v3c-2.7 1.35-5 1.07-8 1v-3h3z"/><path fill="#a61547" d="M849 609h5v11h-2v-7l-2 2z"/><path fill="#ae324d" d="M369 564c3 1 3 1 4.2 2.7l1.05 2.11 1.08 2.08c.78 2.46.51 3.71-.33 6.11l-3-5.37-1.69-3.03C369 566 369 566 369 564"/><path fill="#b43d5d" d="M698 565c-3.62 3.62-9.03 4.88-14.06 5.19L682 570l4-1v-2c4.12-1.3 7.67-2.26 12-2"/><path fill="#ad2341" d="m523 546 1 2q-1.36 3.36-2.94 6.63l-1.71 3.6L518 561c-1.05-2.7-1.08-3.78-.04-6.54l1.41-2.65 1.4-2.67C522 547 522 547 523 546"/><path fill="#b43655" d="M600 446h1c1.24 5.84.57 10.27-1 16-2-2-2-2-2.01-4.24l.32-2.63.3-2.62c.35-2.22.8-4.34 1.39-6.51"/><path fill="#b03252" d="m758 441 2 1-1.02 1.4c-3.34 4.58-3.34 4.58-5.98 9.6l-2-1c1.49-4.6 3.85-7.44 7-11"/><path fill="#b83860" d="M684 407h1l.88 3.13q1.43 4.97 3.12 9.87h-2q-1.34-2.1-2.62-4.25-.74-1.18-1.48-2.4c-.9-2.35-.9-2.35-.05-4.65z"/><path fill="#ac225d" d="M808 623v7h-8l1.94-1.31c2.33-1.6 2.33-1.6 3.06-4.69 2-1 2-1 3-1"/><path fill="#aa185a" d="M897 614c2 2 2 2 2.2 4.38l-.08 2.75-.05 2.75L899 626l-3-2c-.33-1.87-.33-1.87-.25-4l.05-2.12c.2-1.88.2-1.88 1.2-3.88"/><path fill="#a81f40" d="M567 480h1c.32 5.99-.32 9.64-3 15-1.32-3.66-.65-6.08.44-9.75l.87-2.98z"/><path fill="#aa1e3d" d="M543 465c1.32 3.66.65 6.08-.44 9.75l-.87 2.98L541 480h-1c-.32-5.99.32-9.64 3-15"/><path fill="#eee7e3" d="M708 417c-.62 5.54-.62 5.54-2.56 7.88L704 426c-.69-2.81-.69-2.81-1-6 1.59-2.26 2.2-3 5-3"/><path fill="#d5a1b1" d="M688 398h5l1 5-8 1v-2h6v-2l-4-1z"/><path fill="#ac274c" d="M677 371c0 3.62-.86 4.2-3 7a88 88 0 0 0-2 5h-1c-.36-3.83-.3-5.55 1.88-8.81C675 372 675 372 677 371"/><path fill="#c5878e" d="M849 640c2.06.44 2.06.44 4 1v2h3l-1 3-1.56-.44c-3.13-.72-6.27-1.13-9.44-1.56l1.94-1.44c1.94-1.4 1.94-1.4 3.06-2.56"/><path fill="#ae2658" d="M736 623a53 53 0 0 1 5 3v2l2 2-7-1z"/><path fill="#ab2448" d="M675 509q1.24.46 2.5.94c3.9 1.18 7.46 1.64 11.5 2.06-2 2-2 2-4.06 2.05l-2.38-.3-2.37-.27C678 513 678 513 675 511z"/><path fill="#ae2448" d="m311 449 1 3-8 8c0-4.05 1.61-5.8 4-9z"/><path fill="#ac254a" d="m250 441 2 1c-2.7 3.33-6.04 4.58-10 6l-3-1c2.1-2.1 3.32-2.61 6.06-3.56 2.7-.84 2.7-.84 4.94-2.44"/><path fill="#eee5e2" d="m699 391 5 2-2 4-4-1z"/><path fill="#b12067" d="m726 354 8 4-2 2h-4l-1-3h-3z"/><path fill="#b2425c" d="m821 605 2 1-1 3h-5v-2l-4-1c2.74-1.37 4.97-1.13 8-1"/><path fill="#a91841" d="M702 514c1.08 3.23.93 4.34.19 7.56l-.52 2.38C701 526 701 526 699 528c-.35-5.65.57-9.03 3-14"/><path fill="#b5395a" d="M390 504c1.2 3.53.8 6.13.06 9.75l-.59 2.98q-.22 1.12-.47 2.27h-1c-.83-4.63-1.17-8.41 0-13z"/><path fill="#a91c3e" d="M468 462c1.26 3.78.48 5.03-.94 8.69l-1.15 3L465 476c-1.11-3.33-.87-4.74-.19-8.12l.52-2.7.67-2.18z"/><path fill="#b02f53" d="m514 459 2 4c-.94 2.65-2.45 4.63-4 7l-3-1z"/><path fill="#af2c51" d="m775 435 1 2c-8.43 2.29-8.43 2.29-13 2 4.03-3.2 6.86-4.14 12-4"/><path fill="#aa2245" d="M442 437c2.31.19 2.31.19 5 1 2.68 3.33 3.36 5.76 3 10l-2-3-1.62-2.06C445 441 445 441 445 439l-3-1z"/><path fill="#c87998" d="M716 421c1.2 3.62.54 4.64-1 8h-4c1.19-3.38 2.28-5.65 5-8"/><path fill="#ad2b48" d="M243 410h2q-.17 2.72-.37 5.44l-.22 3.06-.41 2.5-2 1c-.14-8.57-.14-8.57 1-12"/><path fill="#a30f45" d="m837 633-1 6h-3l-1 2q.4-3.51 1-7c2-1 2-1 4-1"/><path fill="#b03e57" d="m847 618 1 2 1.88-.62L852 619l2 2c-2 2-2 2-5.62 2.13L845 623l2-1z"/><path fill="#ae1457" d="M613 609h1v15h-1v-8h-2c.88-5.87.88-5.87 2-7"/><path fill="#bb4c6d" d="m705 597 3 1-1 1c-.33 2.42-.33 2.42 0 5 1.4 1.81 1.4 1.81 3 3l-3 1-1-3h-4l1-3v2h2z"/><path fill="#ab2046" d="m500 582 2 1c-2.66 3.74-4.58 5.65-9 7 3.63-5.75 3.63-5.75 7-8"/><path fill="#b43b5a" d="M799 523q-2.12 1.05-4.25 2.06l-2.4 1.16c-2.61.87-3.8.71-6.35-.22h3v-2c3.84-1.48 6.06-2.22 10-1"/><path fill="#ae274a" d="M788 495c3 3 3 3 3.3 5.04L791 506l-2 1z"/><path fill="#b74062" d="m324 478 1 2 7-1-2 1v2h-10l2-1 1-2z"/><path fill="#ad2142" d="M655 463c1.4 2.82.5 4.17-.44 7.13l-.87 2.75L653 475h-2c-.5-5.3.81-7.81 4-12"/><path fill="#be5f88" d="m697.19 415.31 1.81.69-1 2h-4l2 5-4-2c0-3 0-3 1.25-4.75 1.75-1.25 1.75-1.25 3.94-.94"/><path fill="#b55665" d="M864 609c1 3 1 3 .06 5.19L863 616h-2v8h-1c-.51-6.4-.12-9.98 4-15"/><path fill="#bd6e7f" d="M906 604h4c1.62 2.57 2.04 3.68 1.63 6.75L911 613c-1.56-1.81-1.56-1.81-3-4l1-3-4-1z"/><path fill="#b64162" d="m471 598-1 3-14-1v-1l4.69-.5 2.63-.28c2.58-.21 5.1-.26 7.68-.22"/><path fill="#ad2343" d="m528 590 1 2-6 7-3-1z"/><path fill="#b02c4e" d="m268 517 3 2a418 418 0 0 1-5.96 3.13C263 523 263 523 260 523v-2z"/><path fill="#aa2149" d="M346 485c-1.06 1.5-1.06 1.5-3 3-3.69.19-3.69.19-7 0v-2l3.88-1.06 2.17-.6C344 484 344 484 346 485"/><path fill="#a7183e" d="M734 474h1q.12 2.13.19 4.25l.1 2.4c-.35 2.87-1.4 4.2-3.29 6.35l.44-5.37.24-3.03c.32-2.6.32-2.6 1.32-4.6"/><path fill="#b33957" d="M737 464c1.14 3.4.84 5.77.06 9.25l-.59 2.7L736 478c-2.3-3.98-1.87-6.5-1-11h2z"/><path fill="#af2f4e" d="M803 457c3 3.75 3 3.75 3 6l3 1a24 24 0 0 1 2 4c-2.88-1.29-5.1-2.45-7-5-.69-3.19-.69-3.19-1-6"/><path fill="#a7163c" d="M238 458q2.6-.08 5.19-.12l2.92-.08c3.02.2 5.16.93 7.89 2.2v1h-7v-2h-9z"/><path fill="#ab2243" d="M377 449h1q-.17 2.4-.37 4.81l-.22 2.71C377 459 377 459 375 462l-.12-4.25-.08-2.4c.22-2.56.91-4.14 2.2-6.35"/><path fill="#a81c42" d="m247 396 5 2-4 1v3h-2l-1 3c-.25-5.62-.25-5.62 2-9"/><path fill="#a31450" d="m700 387 3 3-4 1-1 6-2-1q.43-1.97.88-3.94l.49-2.21C698 388 698 388 700 387"/><path fill="#b02757" d="M686 375c1.24 3.58.75 6.34 0 10l-3-1c.5-3.73.87-5.81 3-9"/><path fill="#c47888" d="M589 592c2.7.18 5.33.62 8 1l-1 2c-2.31.56-2.31.56-5 1q-2 .49-4 1c.88-3.87.88-3.87 2-5"/><path fill="#af2c4e" d="M461 518c-1.44 3.8-3.35 5.27-7 7l-2-1c5.8-6 5.8-6 9-6"/><path fill="#ac2947" d="m525 506 2 1c-5.14 5.57-5.14 5.57-9 6l-1-2 3.88-2.56 2.17-1.44z"/><path fill="#c1607e" d="M717.94 354.06c2.6 1.19 4.15 2.83 6.06 4.94l-5-1v-2l-6 1c2.42-3.02 2.42-3.02 4.94-2.94"/><path fill="#a71346" d="m717 616 5 1c.13 3.38.13 3.38 0 7l-2 2-.37-3.44L719 619l-2-1z"/><path fill="#a11432" d="M777 606h10l-1 3c-6.75.13-6.75.13-9-1z"/><path fill="#a91753" d="m683 428 2 1v3l-2 1-1 2-3-3 2-1v-2z"/><path fill="#a91f3d" d="M241 424h1c.17 4.92.25 8.5-2 13h-1l.68-7.52C240 427 240 427 241 424"/><path fill="#b74164" d="m220 403 2 1v6l-3 1v-4l-2-1v-2z"/><path fill="#ad304e" d="m199 401 2 1-6 7-4-1z"/><path fill="#e5cfcf" d="m714 367 6 1v5h-3l-.37-2.44L716 368z"/><path fill="#b12e67" d="m700 368 4 1-1 4-4-1z"/><path fill="#b04a5f" d="M861 624c3.57 1.88 5.55 3.17 7 7-2.37-.69-2.37-.69-5-2-1.31-2.62-1.31-2.62-2-5"/><path fill="#af1c5d" d="M676 616h1v12l-3-1z"/><path fill="#a01037" d="M865 609h3l-1 15h-1z"/><path fill="#ab1859" d="M732 616h2l1 8-3 1z"/><path fill="#ae254e" d="m688 552 3 1c-.69 1.94-.69 1.94-2 4-2.62.75-2.62.75-5 1l2-4h2z"/><path fill="#ac2241" d="m284 502 1 4c-1.94 2.75-1.94 2.75-4 5l-3-1z"/><path fill="#ae2f51" d="M419 446a167 167 0 0 1-10 7c.37-2.67.82-3.82 2.75-5.75 2.63-1.46 4.29-1.5 7.25-1.25"/><path fill="#aa1c48" d="M549 445c1.4 4.18-.18 6.13-2 10h-1c-.3-6.05-.3-6.05 0-8z"/><path fill="#b9426f" d="m693 424 10 2 1-2 1 3c-5.28 1.06-5.28 1.06-8 1-2.5-1.94-2.5-1.94-4-4"/><path fill="#ae2e4f" d="M749 412c1.19 1.69 1.19 1.69 2 4-1.19 2.69-1.19 2.69-3 5l-3 1z"/><path fill="#a91c4e" d="M583 410h2v6h-4z"/><path fill="#ac1a5c" d="m710 403 5 1-1 4-5-1z"/><path fill="#ad2547" d="M632 400c3.15.34 4.6.58 6.81 2.94C640 405 640 405 640 407c-2 0-2 0-4.56-2.37C633 402 633 402 632 400"/><path fill="#b44070" d="m725 372 2 1v2h-2v2h-2v-3h-6c3.24-2.16 4.26-2.29 8-2"/><path fill="#bf6283" d="M705 368h4v7l-6-1 4-3z"/><path fill="#b03858" d="m714 342 2 1-4 7-3-1z"/><path fill="#b53554" d="M520 602c-4.75 4-4.75 4-7 4v2l-2-1c1-3 1-3 3.38-4.75C517 601 517 601 520 602"/><path fill="#be7080" d="M561 593h6l-1 4h-6z"/><path fill="#b73d5d" d="M723 530c1.14 3.4.87 4-.44 7.19l-.87 2.17L721 541h-1l1-9h2z"/><path fill="#ae284a" d="M804 481c3.8.54 5.47 2.2 8 5l-1 2-3.5-2.94-1.97-1.65L804 482z"/><path fill="#b43c5e" d="M194 467c-2.25 2.06-2.25 2.06-5 4-2.31-.25-2.31-.25-4-1 1-2 1-2 3.38-3.19C191 466 191 466 194 467"/><path fill="#bb456a" d="M785 445h12l1 4-1.7-.96c-2.45-1.1-4.38-1.43-7.05-1.67l-2.42-.22L785 446z"/><path fill="#b33359" d="m743 440 4 1-1.87 1.75A19 19 0 0 0 741 449c-.69-2.25-.69-2.25-1-5 1.44-2.31 1.44-2.31 3-4"/><path fill="#b22d52" d="m256 400 6 5-2 3-1.87-2.37c-2.03-2.6-2.03-2.6-4.13-4.63z"/><path fill="#e4d1d0" d="M717 377h2l1 5-4 1a100 100 0 0 1 0-5z"/><path fill="#ac2052" d="m722 356 1.88.56c2.16.68 2.16.68 4.12-.56l1 5c-2.37-.25-2.37-.25-5-1-1.31-2.06-1.31-2.06-2-4"/><path fill="#b94c72" d="m848 627 6 1v3l3 1-1 3c-1.5-1.31-1.5-1.31-3-3v-3h-5z"/><path fill="#ab2557" d="M568 596c2.06.44 2.06.44 4 1l-1.37 1.25A19 19 0 0 0 567 604q-.06-3.5 0-7z"/><path fill="#ae2447" d="m468 514 7 6-3 1c-2-1.81-2-1.81-4-4z"/><path fill="#b12c59" d="m363 510 3 1v2h-2l-1 3-1-2h-2l1-3z"/><path fill="#a91e46" d="M764 491h3v7l-3 1z"/><path fill="#b23657" d="m535 492 2 3c-.77 3.15-1.33 4.59-4.12 6.31L531 502l.88-1.62c1.29-2.73 2.2-5.5 3.12-8.38"/><path fill="#ab2346" d="m357 473 1 3-1 2h-2l-1 3-3-1z"/><path fill="#b84365" d="m777 452 .38 1.56c.8 3.17 1.71 6.3 2.62 9.44l-3-1c-1.12-7.75-1.12-7.75 0-10"/><path fill="#b5385f" d="M529 449c2.1 3.4 2.18 6.05 2 10h-2c-1.12-6.62-1.12-6.62 0-10"/><path fill="#b33b5e" d="m481 442 2 1-2 3v2l-5 1a19 19 0 0 1 5-7"/><path fill="#aa1454" d="M716 426h4v2l4 1h-9z"/><path fill="#b03557" d="M186 414c1.2 3.62.54 4.64-1 8l-3-1c1.07-2.92 1.78-4.78 4-7"/><path fill="#a81455" d="M693 398h8l-2 2h-3l-1 3c-2-3.87-2-3.87-2-5"/><path fill="#a9164b" d="M682 385h2v6l-3 1z"/><path fill="#ae2555" d="m676 608-1 10h-1v-8l-4-1c3-1 3-1 6-1"/><path fill="#b02b4e" d="M383 584c5.57 5.14 5.57 5.14 6 9-5.57-5.14-5.57-5.14-6-9"/><path fill="#b13151" d="m246 523 10 1v1l-8 1z"/><path fill="#b22f52" d="M422 518c3.24.56 4.93 1.41 7 4v2c-3.37-1.4-4.99-2.98-7-6"/><path fill="#ab1e46" d="m488 503 5 5-1 3c-4-4.62-4-4.62-4-8"/><path fill="#b13756" d="m314 443 2 1c-1.88 3.57-3.17 5.55-7 7a40 40 0 0 1 5-8"/><path fill="#aa2444" d="M354 438c4 1 4 1 6 3l-1 4z"/><path fill="#b13151" d="m201 416 3 1-4 7-2-3z"/><path fill="#dbb7b9" d="m709 408 3 1v5h-3z"/><path fill="#b5365a" d="M280 403c2.8 2.53 4.46 4.2 5 8-3-1-3-1-4.19-2.87C280 406 280 406 280 403"/><path fill="#b3335a" d="M748 381c2.11 2.57 3.66 4.63 4 8l-2 2c-1.6-3.5-2.22-6.14-2-10"/><path fill="#d2a2aa" d="M891 619h1v5l-2-4z"/><path fill="#be4b77" d="m581 432 1 2 2 1-4-1z"/><path fill="#c9929f" d="m844 635 4 1Z"/><path fill="#bf567d" d="M376 581h2l-1 2z"/><path fill="#c26084" d="m642 565 2 1-2 1z"/><path fill="#be4e7a" d="m533 446 1 2-2-1z"/><path fill="#bd4578" d="m600 405 3 1Z"/><path fill="#c05781" d="m746 388 2 2h-2z"/><path fill="#be9197" d="m838 640 2 1Z"/><path fill="#cc91a3" d="m712 625 2 1Z"/><path fill="#cf98a3" d="m830 624 2 1Z"/><path fill="#cb999d" d="m779 616 2 1Z"/><path fill="#cf9da8" d="m877 614 2 1Z"/><path fill="#cb91a0" d="m628 604 2 1Z"/><path fill="#ce94a3" d="m742 603 2 1Z"/><path fill="#c9909d" d="m721 593 2 1Z"/><path fill="#c04c78" d="m384 546 2 1Z"/><path fill="#bf4f79" d="m366 546 2 1Z"/><path fill="#be6287" d="m198 527 2 1Z"/><path fill="#be4574" d="m490 492 2 1Z"/><path fill="#be4579" d="m416 482 2 1Z"/><path fill="#be4475" d="m588 447 2 1Z"/><path fill="#bc4777" d="m606 434 2 1Z"/><path fill="#bc5278" d="m778 432 2 1Z"/><path fill="#c2507c" d="m698 429 2 1Z"/><path fill="#c06189" d="m669 376 2 1Z"/></svg>